<?xml version="1.0" standalone="no"?>
<!DOCTYPE svg PUBLIC "-//W3C//DTD SVG 20010904//EN"
 "http://www.w3.org/TR/2001/REC-SVG-20010904/DTD/svg10.dtd">
<svg version="1.0" xmlns="http://www.w3.org/2000/svg"
 width="500.000000pt" height="500.000000pt" viewBox="0 0 500.000000 500.000000"
 preserveAspectRatio="xMidYMid meet">
<metadata>
Created by potrace 1.14, written by Peter Selinger 2001-2017
</metadata>
<g transform="translate(0.000000,500.000000) scale(0.100000,-0.100000)"
fill="#000000" stroke="none">
<path d="M2364 4848 c-76 -45 -152 -89 -169 -99 -16 -10 -46 -26 -65 -37 -33
-18 -155 -88 -585 -337 -93 -53 -208 -120 -255 -148 -47 -27 -103 -60 -125
-72 -41 -23 -569 -327 -686 -396 -44 -25 -68 -46 -72 -61 -8 -36 -5 -2391 3
-2413 5 -13 162 -109 431 -265 233 -134 558 -322 723 -417 164 -95 300 -173
301 -173 2 0 40 -22 85 -50 45 -27 83 -50 86 -50 2 0 21 -10 42 -23 20 -13 62
-37 92 -54 30 -17 90 -51 133 -77 43 -25 82 -46 86 -46 5 0 11 -3 13 -7 2 -5
28 -21 60 -36 66 -33 37 -44 288 101 91 52 179 103 195 112 133 77 443 256
545 315 69 40 141 82 160 93 19 11 166 95 325 187 160 92 333 192 385 222 189
109 238 138 254 152 15 12 16 121 16 1221 0 1136 -1 1209 -17 1228 -14 15
-496 299 -665 391 -16 9 -37 21 -46 26 -35 21 -299 174 -332 192 -54 31 -605
349 -698 404 -46 27 -86 49 -89 49 -4 0 -14 6 -22 14 -9 7 -43 28 -76 45 -33
18 -78 44 -101 57 -23 14 -51 26 -61 28 -11 3 -80 -31 -159 -76z"/>
</g>
</svg>
