<?xml version="1.0" encoding="UTF-8" standalone="no"?>
<!DOCTYPE svg PUBLIC "-//W3C//DTD SVG 1.1//EN" "http://www.w3.org/Graphics/SVG/1.1/DTD/svg11.dtd">
<!-- Created with Vectornator (http://vectornator.io/) -->
<svg height="100%" stroke-miterlimit="10" style="fill-rule:nonzero;clip-rule:evenodd;stroke-linecap:round;stroke-linejoin:round;" version="1.1" viewBox="0 0 2360 1640" width="100%" xml:space="preserve" xmlns="http://www.w3.org/2000/svg" xmlns:vectornator="http://vectornator.io" xmlns:xlink="http://www.w3.org/1999/xlink">
<defs/>
<g id="Layer-1" vectornator:layerName="Layer 1"/>
<g id="Untitled-copy" vectornator:layerName="Untitled copy">
<g opacity="1" vectornator:layerName="g">
<path d="M1258 160.7C1189.7 163.2 1104.6 174 1038 188.6C956.7 206.5 900.3 224.5 842 251.2C725.3 304.7 645.9 369.5 566 476.5C542.5 508 522.8 537.2 501.8 571.5C448.4 658.8 424.7 725.6 417.5 809C415.5 832.4 414.4 876.5 415.7 877.3C416.3 877.7 420.5 874.8 425.1 871C435.9 862.1 442.6 858.7 450.5 858.2C461 857.5 466.7 861.8 481.9 881.5C499.2 903.8 505.5 904.3 523.3 884.7C532.9 874.1 539.8 870.1 545.4 872C550.7 873.7 555.4 880 560.6 892.4C569 912.5 573.7 920 577.8 920C580.2 920 587.2 912.1 590.8 905.3C594 899.2 601.2 881.8 615.5 845.9C624.1 824.1 626.9 818.4 631.1 813.5C633.6 810.7 634.9 810 637.9 810C647.2 810 649.8 818.6 658.6 876.5C660 885.8 663.1 903.6 665.5 916C667.9 928.4 672.2 951.1 675 966.4C680.7 997.8 688.4 1035.3 693.6 1057C704.1 1101.2 727.1 1168.4 739.4 1190.8C746 1202.8 751.5 1209.8 757.6 1213.9C761.6 1216.6 763.2 1217.1 766.4 1216.7C773.4 1215.7 781.2 1206.1 787.6 1190.3C798.3 1163.7 813.9 1096.6 827 1021C829.3 1008.1 834.4 982.4 838.5 964C859.3 869.5 867 848 879.9 848C884.7 848 887.9 850.8 891.8 858.6C897.9 870.8 901 882.3 916.9 952.5C928.9 1005.6 931.1 1014.2 935.5 1027C940.3 1040.9 943.9 1048.4 946.4 1049.3C949.7 1050.6 956.2 1039.3 961.5 1023.5C963.5 1017.4 968.5 1001 972.6 987C985.5 943.2 989.1 933.4 995.9 924.2C999.8 918.9 1006.6 915.5 1011.1 916.5C1018.6 918.2 1023.9 926 1032.3 947.5C1040.2 967.9 1045.1 977 1048 977C1049.7 977 1054.1 968.2 1059.5 953.6C1067.6 931.7 1072.2 923.5 1079.1 918.4C1084 914.8 1088.1 914.4 1093.5 917C1102.5 921.4 1111.5 936.9 1126.2 973.5C1131.7 987.2 1139.9 1003 1141.6 1003C1143.4 1003 1144.5 1000.7 1146.9 992C1153.4 968.6 1158.6 907.1 1162.5 808C1163.4 786.8 1164.5 762.7 1165 754.5C1165.5 746.2 1166.4 724.4 1167 706C1168.1 669.6 1168.9 655.6 1173 597C1173.6 589 1174.5 575.7 1175 567.5C1177.6 524.8 1179.2 508 1183.6 478.5C1190 434.9 1195.1 411.3 1200.6 398.9C1207.6 383.3 1219.4 382.8 1226.9 397.9C1232.7 409.3 1237 427.3 1244.9 473C1247.8 489.6 1259.4 565.1 1264 597.5C1267.6 622.8 1280.9 709.5 1284 728C1285.6 737.6 1288.5 756.3 1290.5 769.5C1292.5 782.7 1295.2 799.1 1296.5 806C1297.8 812.9 1300.5 828.2 1302.5 840C1306.1 861.8 1312.2 897.3 1318.6 933.5C1324.1 964.5 1336.6 1027.2 1342.1 1051C1349.7 1084.1 1356.7 1107.3 1362.6 1119.5C1365.8 1126 1371.8 1133 1374.2 1133C1376.5 1133 1383.5 1124.9 1386.8 1118.3C1393.1 1105.9 1404.4 1068.6 1411.6 1036.5C1414.1 1025.5 1417.4 1011.3 1419 1005C1420.6 998.7 1423.5 985.8 1425.4 976.5C1433.9 935 1444.8 892.8 1452.7 870C1458.7 852.7 1467.7 839.1 1474.3 837.5C1479.7 836.1 1484 837.8 1489.6 843.7C1498.9 853.4 1502.7 862.8 1522 924C1537.3 972.6 1545.9 993.9 1551.5 997.6C1554 999.2 1554.2 999.2 1556.5 997C1559.9 993.8 1566 980.9 1571.9 964C1584.6 928 1588.2 919.9 1594.3 913.5C1599.8 907.8 1604.1 906.9 1610.5 910C1618.4 913.8 1625.4 924.4 1635.5 947.4C1645 969.1 1650.2 978 1653.4 978C1655.5 978 1659.6 969.1 1662.3 958.5C1663.8 953 1667.2 938.4 1669.9 926C1688.1 843.8 1691.8 828.4 1700 802C1710.3 768.6 1716.8 752.9 1721.8 748.9C1726.9 744.9 1733.6 747.4 1737.3 754.7C1740.3 760.3 1745.8 786.5 1747.5 802.5C1748.4 810.9 1752.6 840.7 1755.5 858.5C1759 880.3 1760.7 892.7 1762.5 909C1763.3 917 1764.9 930 1766.1 938C1767.2 946 1769.2 960.6 1770.5 970.5C1773.7 993.7 1773.8 994 1776 994C1778 994 1804.8 984.2 1809.7 981.7C1811.9 980.5 1813.3 978.7 1814.6 975.3C1827.4 940.5 1844.4 902.2 1852.6 889.2C1856.9 882.5 1863.6 875.3 1867.1 873.4C1872.7 870.6 1878.5 872 1883.3 877.5C1886.2 880.8 1889.6 888 1894.4 901C1899.6 914.9 1903.1 921 1906 921C1908.6 921 1911.8 916.4 1918.5 903.1C1925.6 888.8 1928.6 884.2 1932.2 882.4C1935.2 880.8 1939.2 881.4 1941.1 883.6C1941.7 884.4 1942.7 885 1943.2 885C1944.8 885 1956 866.8 1962.5 853.5C1981.7 814.1 1992.2 766.4 1992.3 717.5C1992.4 662.2 1981.3 619.9 1949.6 554.5C1906.3 465.2 1857.7 400.8 1783.5 334.7C1691.1 252.3 1620.8 213.7 1514.5 187.1C1439.3 168.3 1337.2 157.8 1258 160.7ZM883.5 384.9C905 390.6 916.7 400.6 926.9 422.1C932.1 432.9 935.1 444.8 936 458C936.3 463.8 936.5 468.8 936.3 469.2C936.1 469.7 927.9 470 918.2 470L900.4 470L899.4 462C897.3 446.7 888.7 434.6 876.5 430.1C862.1 424.7 844.5 425.1 832.3 431C818.5 437.8 807.5 456.1 804 478.4C802.2 489.3 803.2 510.5 806 520C808.2 527.9 814.5 541.2 818 545.8C825.9 556.1 838.6 566.4 869 587.5C879.2 594.6 890.7 602.9 894.5 606C904.6 614.3 918.8 629.4 924.4 637.8C951.1 678.1 953 745.4 929 795.6C911.7 831.7 884.7 846.6 841.9 843.9C828.5 843 819.1 841 808.5 836.6C784.4 826.8 770.5 808.3 762 774.5C759.5 764.9 757 745.2 757 736.1L757 733L775.4 733L793.7 733L794.3 743.7C795.7 769.8 803.9 784.8 821.3 793.3C834.6 799.8 853.7 801.9 865.9 798.1C874.6 795.4 879.8 792 887.1 784.3C902 768.5 908.8 746.6 907.7 718.2C906.8 695.2 901.6 682.1 887.6 667.2C877.6 656.7 868 649.2 847 635.5C825.2 621.2 817.4 615.4 807.2 605.6C778.9 578.6 765.9 545.5 765.8 500C765.8 469.6 770.9 446.8 782.6 425.1C795.8 400.8 812.4 388.5 839.1 383.4C849.8 381.4 873 382.2 883.5 384.9ZM1400.1 394.1C1411.9 395.3 1423.3 398.7 1430.3 403.2C1436.2 407 1446.4 418 1450.8 425.3C1459.7 440.1 1466.6 461.9 1469.6 484.3C1471.5 498.9 1471 527.7 1468.6 540.9C1461.1 581.7 1444.6 611.5 1420.2 628.7C1416.5 631.3 1413.3 633.5 1413.1 633.6C1412.9 633.8 1415.3 636.7 1418.5 640.2C1421.6 643.7 1425.7 649.2 1427.6 652.6C1434 664 1445.6 695.3 1468.1 761.1L1490.5 826.8L1490.8 609.9L1491 393L1530.8 393C1589.1 393 1607.1 394.9 1623 403C1641.4 412.3 1656.1 435.8 1662.6 466.5C1666.8 486.2 1668.3 518.4 1665.9 539.8C1661.5 580.2 1646.3 615.7 1624.9 635.4C1605.4 653.4 1586.3 658.9 1543.3 659L1528 659L1528 745L1528 831L1489.1 831L1450.2 831L1433 779.2C1423.5 750.8 1413.1 720.1 1409.8 711C1402.8 691.5 1390.7 666.4 1381.8 652.8L1375.5 643L1357.8 643L1340 643L1340 737L1340 831L1321.5 831L1303 831L1303 612L1303 393L1346.4 393C1370.3 393 1394.4 393.5 1400.1 394.1ZM988.8 492.2L989 589L1052 589L1115 589L1115 492L1115 395L1133.5 395L1152 395L1152 613L1152 831L1133.5 831L1115 831L1115 732L1115 633L1052 633L989 633L989 732L989 831L970.5 831L952 831L952 613L952 395L970.3 395.2L988.5 395.5L988.8 492.2Z" fill="#000000" fill-rule="nonzero" opacity="1" stroke="none" vectornator:layerName="path"/>
<path d="M1340 518.5L1340 599L1359.8 599C1382.6 599 1390.1 598 1398.8 594C1418.1 585 1431.2 555.6 1432.6 518C1433.7 489.4 1427.9 468.2 1414.6 451.7C1405.4 440.4 1396.4 438 1363.3 438L1340 438L1340 518.5Z" fill="#000000" fill-rule="nonzero" opacity="1" stroke="none" vectornator:layerName="path"/>
<path d="M1528 526L1528 614.2L1549.3 613.8C1572.9 613.3 1579.5 612.2 1591.5 606.6C1607.9 599 1617.9 584.2 1624.4 557.9C1628.1 542.9 1629.1 534.5 1629.1 516.4C1629.1 470.8 1617.7 448.3 1590.5 440.2C1586.8 439.1 1578.2 438.6 1556.8 438.3L1528 437.8L1528 526Z" fill="#000000" fill-rule="nonzero" opacity="1" stroke="none" vectornator:layerName="path"/>
<path d="M1211.2 398.5C1206 405.1 1200.1 426.7 1195.1 458C1188.4 499.6 1185.4 527.3 1183 570C1182.4 580.2 1181.5 593.7 1181 600C1179.8 614.1 1178.5 638.5 1176.5 684.5C1175.7 703.7 1174.6 730.7 1174 744.5C1170.9 817.1 1168.7 861.3 1167 886.5C1160.9 971 1155.6 1005.3 1147.5 1012C1144.6 1014.4 1139.4 1013.7 1135.9 1010.4C1132.4 1007.1 1125.4 993.1 1118.5 975.5C1108.6 950.6 1098.1 930.8 1091.9 925.6C1088.1 922.4 1087.9 922.4 1084 925.6C1080.3 928.8 1077.1 934.8 1069.5 953.5C1061 974.3 1058.3 979.5 1054.4 982.9C1050.2 986.6 1046.6 986.9 1041.9 983.7C1037.1 980.5 1033.8 974.6 1027.2 957C1012.2 917.5 1007.3 915.9 994.6 945.8C992.1 951.9 986.6 968.7 982.5 983.2C972.9 1016.7 967.2 1033.7 962 1044.2C954.8 1058.8 948.1 1062.5 940.6 1055.9C931.7 1048.1 924.7 1024.9 904 935.6C899.7 916.8 894.3 894.8 892.1 886.7C887.7 870.7 882 857 879.7 857C870 857 854.2 918.5 827.5 1060.5C819.8 1101.6 817.7 1111.3 811.5 1136C802.2 1173.2 794.9 1195 787.3 1207.9C783.6 1214.2 776.2 1222 772.3 1223.6C755.7 1230.6 738.8 1213.1 720 1169C703.4 1130.3 684.7 1061.2 668.6 979.5C664.6 958.8 656.9 914.3 648 860C645.1 842.5 642.2 829.8 639.1 821.6C638.1 819.2 637.7 819 636.4 820.1C633.8 822.2 628.2 834.3 621 853C604.3 896.5 596.7 912.8 589.2 921.1C584.1 926.8 579.5 928.7 574.6 927C567.6 924.7 562.9 917.6 554 896.3C548.9 883.9 544.6 878.4 541 879.5C539.6 879.9 533 885.6 526.4 892.1C519.7 898.7 512.6 904.7 510.7 905.5C506.1 907.4 500.9 907.4 496.4 905.5C491.8 903.6 481.4 893.6 473.5 883.5C465 872.6 458.1 866.3 453.7 865.5C446.7 864.2 438.9 868.5 424.4 881.7L415.8 889.5L416.4 903.5C420.1 987.7 431 1040.8 453.9 1087.5C468.2 1116.6 486.4 1141.8 503.9 1156.9C524.3 1174.4 552.9 1188.2 578 1192.6C589.6 1194.6 613.6 1194.1 621.5 1191.6C624.3 1190.7 627 1190 627.6 1190C628.4 1190 628.5 1193.1 628.2 1200.1C627.7 1211.4 628.9 1220.4 632.7 1232C640 1254.7 660 1274.1 692.5 1290C726.3 1306.5 794.3 1323.2 841.8 1326.6C846.8 1327 851 1327.4 851 1327.6C851 1327.8 849.2 1330.9 847 1334.5C832.8 1357.7 826.6 1378.8 826.7 1404C826.8 1414.4 827.2 1419.3 828.9 1425.5C836.2 1453.5 856.9 1473.1 887.5 1481.1C895.5 1483.2 898.6 1483.5 916 1483.5C937.8 1483.4 944.9 1482.3 965.8 1475.5C1025.3 1456.3 1080 1416.2 1126.9 1357.4C1134.4 1348.1 1146 1333.4 1152.6 1324.9C1180.9 1288.8 1198.6 1273 1226 1259.1C1257.2 1243.2 1286.4 1235.9 1367.1 1223.5C1448.9 1211 1489.7 1203.4 1513 1196.4C1547.4 1186.1 1571 1173.2 1589.6 1154.6C1603.8 1140.4 1613.2 1125.4 1619.4 1106.8C1621.6 1100.2 1622.7 1095.4 1627.5 1070.2C1630.3 1055.3 1636.8 1046.3 1651.5 1036.4C1665.8 1027 1680.3 1021.5 1720.7 1010.4C1757.2 1000.5 1765 998.1 1765 996.9C1765 995 1761.8 970 1759 950C1757.4 938.7 1755.9 926.1 1755.5 922C1754.3 908.4 1748.4 866 1744 839C1742.4 829.4 1740.8 818.3 1740.5 814.5C1737.8 785.5 1731.4 757 1727.4 757C1726 757 1721.5 765.2 1718 774C1711.5 790.6 1701.1 829.5 1691.5 873C1688.5 887 1684.1 906.7 1681.9 916.8C1677.4 937.1 1669.3 967.4 1666 976.2C1663.7 982.3 1658.4 988 1654.9 988C1651.2 988 1646.1 984.9 1642.9 980.6C1641.2 978.4 1635.8 968.2 1630.8 958C1620.2 936.1 1613 923.3 1609.7 920.1C1605.6 916.4 1602.2 917.5 1597.8 924C1594.1 929.5 1586.3 948 1582 961.5C1577.8 974.6 1570.2 993 1567 998C1559.7 1009.3 1553.3 1011 1545.4 1003.8C1537.1 996.1 1531.8 982.9 1512.4 921C1494.7 864.8 1486.1 846 1477.7 846C1474.7 846 1470 851.8 1465.9 860.5C1459 875.4 1446.9 917.2 1437.5 959.5C1414 1064.3 1404.4 1100.2 1394 1122.7C1389.1 1133.3 1385.9 1137.4 1380.5 1140C1376.8 1141.8 1375.5 1142 1372.2 1141.1C1366.8 1139.6 1359.7 1131.8 1355.5 1122.7C1341.9 1093.3 1324.3 1018.9 1308.6 924.5C1306.6 912.9 1302.6 889.3 1299.5 872C1296.4 854.7 1292.8 832.8 1291.5 823.5C1290.1 814.1 1288.3 803.1 1287.5 799C1286.7 794.9 1284.4 781.1 1282.5 768.5C1280.5 755.8 1277.6 738.1 1275.9 729C1274.3 719.9 1271.7 703 1270 691.5C1268.3 679.9 1265.2 659 1263 645C1260.8 631 1257 605.5 1254.5 588.5C1245.7 527.1 1235.9 465.9 1231.3 443C1226.7 419.8 1218.6 396.9 1214.9 396.2C1214 396 1212.3 397.1 1211.2 398.5Z" fill="#000000" fill-rule="nonzero" opacity="1" stroke="none" vectornator:layerName="path"/>
<path d="M1869.3 883.5C1866.5 885.5 1855.9 901.3 1851.4 910.2C1843.8 925.3 1825.3 972.6 1826.5 973.8C1827.4 974.7 1850.6 962.8 1864.9 954.2C1879 945.7 1897.9 932.4 1898.7 930.4C1899 929.6 1898.3 927.9 1897.2 926.7C1894.5 923.7 1891.6 917.7 1887.6 906.7C1883.7 896 1880.8 889.9 1877.2 885.2C1874.5 881.7 1872.5 881.2 1869.3 883.5Z" fill="#000000" fill-rule="nonzero" opacity="1" stroke="none" vectornator:layerName="path"/>
<path d="M1932 897.2L1929.9 901.5L1932.9 898.2C1936 894.9 1936.8 893 1935 893C1934.5 893 1933.1 894.9 1932 897.2Z" fill="#000000" fill-rule="nonzero" opacity="1" stroke="none" vectornator:layerName="path"/>
</g>
</g>
</svg>
