<?xml version="1.0" encoding="UTF-8" standalone="no"?>
<!DOCTYPE svg PUBLIC "-//W3C//DTD SVG 1.1//EN" "http://www.w3.org/Graphics/SVG/1.1/DTD/svg11.dtd">
<!-- Created with Vectornator (http://vectornator.io/) -->
<svg height="100%" stroke-miterlimit="10" style="fill-rule:nonzero;clip-rule:evenodd;stroke-linecap:round;stroke-linejoin:round;" version="1.1" viewBox="0 0 2360 1640" width="100%" xml:space="preserve" xmlns="http://www.w3.org/2000/svg" xmlns:vectornator="http://vectornator.io" xmlns:xlink="http://www.w3.org/1999/xlink">
<defs/>
<g id="Brain" vectornator:layerName="Brain">
<path d="M1249 161C1189.5 163.9 1114.2 173.1 1058.5 184.4C950.2 206.4 876.9 231.3 798.5 272.8C736.6 305.6 690.2 339.6 643 386.9C627.567 402.371 613.427 417.653 599.649 433.892C577.27 460.268 555.848 489.168 531.4 525.5C468.2 619.6 436.2 690 423.5 763C416.8 801.8 414 847.9 415.9 890.7C418.8 955.8 423.5 994.8 433 1031.5C445.9 1081 474.3 1131.3 503.9 1156.8C521.9 1172.3 547.3 1185.4 570.3 1191.1C586 1194.9 613.1 1194.7 624.8 1190.6L628.5 1189.3L628.5 1203.4C628.5 1218.3 629.6 1224.1 634.6 1236.9C645.3 1264.2 676.8 1287.1 725.3 1302.9C759.7 1314.1 804.2 1323.4 836 1326C844 1326.7 850.6 1327.4 850.8 1327.5C850.9 1327.6 848.6 1331.9 845.6 1337C834.7 1355.3 828.8 1373.5 826.9 1394.1C823.4 1432.2 841.2 1463.4 874 1476.6C888.3 1482.4 894 1483.4 915.5 1483.4C933.9 1483.4 936.5 1483.2 947.1 1480.7C994.5 1469.5 1039.4 1444.5 1082.4 1405.4C1102.1 1387.5 1114.9 1373.2 1137.9 1343.4C1182.4 1285.9 1200.7 1269.4 1237.3 1253.6C1266.1 1241.2 1294.5 1234.6 1370 1223C1482.5 1205.7 1518.1 1197.7 1549.5 1182.5C1591.2 1162.4 1615.8 1131.3 1624.1 1088C1625.2 1082.2 1626.8 1073.9 1627.6 1069.6C1629.5 1059.7 1632.8 1053.2 1639.3 1046.3C1653.2 1031.6 1671.3 1023.8 1727.5 1008.5C1785.2 992.8 1822.9 978.3 1856.5 959.1C1930.6 916.7 1968.1 866.3 1985 786.2C1995.2 737.8 1994.8 688.6 1983.9 644.3C1969.7 586.4 1924.6 497.3 1878.6 436.2C1827.7 368.6 1736.9 287.8 1665 246C1582.6 198.1 1476.1 170.5 1342 162.1C1317.9 160.5 1270.3 160 1249 161Z" fill="#000000" fill-rule="nonzero" opacity="1" stroke="none" vectornator:layerName="path"/>
<g opacity="1" vectornator:layerName="g">
<path d="M825.006 367.576C787.906 372.676 764.206 396.576 753.006 440.076C748.806 456.476 747.606 469.476 748.306 491.276C749.106 517.676 752.706 533.776 762.406 553.576C768.706 566.576 775.506 576.076 786.506 587.176C797.506 598.276 808.806 606.976 828.506 619.576C846.606 631.176 855.106 637.576 865.406 647.476C884.906 666.376 890.706 681.676 889.706 711.476C889.106 729.176 887.006 739.376 881.406 751.176C874.606 765.576 865.106 775.376 852.506 781.176C847.506 783.476 844.806 783.976 836.006 784.376C810.606 785.376 790.806 775.376 782.506 757.176C778.606 748.776 776.006 735.976 776.006 724.976L776.006 717.576L757.506 717.576L738.906 717.576L739.506 726.776C741.706 759.676 749.906 785.176 763.906 801.876C778.806 819.676 802.006 828.576 833.506 828.576C858.906 828.576 875.606 822.676 890.106 808.876C903.106 796.376 911.706 781.876 918.506 760.776C932.706 716.676 930.406 668.976 912.306 633.076C901.406 611.476 885.606 596.076 847.506 569.676C822.406 552.376 809.906 542.476 803.506 534.676C791.006 519.776 784.906 501.576 784.806 479.576C784.806 443.176 801.006 416.176 825.906 411.576C840.206 408.876 856.706 411.976 867.106 419.176C874.406 424.176 880.306 435.776 881.806 448.076L882.506 454.076L900.306 454.376L918.006 454.576L918.006 447.276C918.006 431.276 912.906 412.576 904.506 398.376C895.106 382.276 882.106 373.076 862.706 368.976C853.906 367.076 833.806 366.376 825.006 367.576Z" fill="#ffffff" fill-rule="nonzero" opacity="1" stroke="none" vectornator:layerName="path"/>
<path d="M1215.48 373.356C1206.81 373.585 1201.68 383.113 1194.97 395.625C1193.81 397.786 1193.06 400.18 1192.28 402.5C1191.26 405.542 1190.36 408.62 1189.53 411.719C1187.29 420.116 1185.51 428.622 1183.88 437.156C1178.41 465.629 1174.75 494.462 1172 523.312C1169.9 545.312 1168.77 567.392 1167.25 589.438C1165.38 616.573 1163.46 643.735 1162.19 670.906C1161.25 690.804 1160.81 710.693 1159.94 730.594C1159.24 746.56 1158.25 762.535 1157.53 778.5C1156.34 805.105 1155.37 831.711 1154.09 858.312C1153.29 875.158 1152.39 891.991 1151.19 908.812C1149.87 927.297 1148.17 945.773 1145.56 964.125C1144.48 971.729 1143.31 979.34 1141.66 986.844C1141.4 988.019 1141.07 989.175 1140.78 990.344C1140.27 989.347 1139.71 988.381 1139.22 987.375C1135.91 980.639 1132.99 973.726 1130.16 966.781C1126.9 958.803 1123.46 950.905 1119.69 943.156C1116.61 936.822 1113.33 930.544 1109.5 924.625C1105.2 917.977 1099.38 911.391 1091.34 909.5C1089.88 909.155 1088.38 908.998 1086.88 909.031C1078.67 909.212 1072.23 915.134 1067.66 921.406C1063.53 927.059 1060.67 933.416 1058.06 939.875C1056.24 944.402 1054.51 948.954 1052.81 953.531C1051.38 957.411 1050.01 961.332 1048.28 965.094C1048.06 965.566 1047.82 966.028 1047.59 966.5C1047.22 965.777 1046.8 965.073 1046.44 964.344C1044.08 959.6 1041.95 954.739 1039.94 949.844C1038.7 946.836 1037.55 943.803 1036.34 940.781C1035.46 938.553 1034.55 936.322 1033.59 934.125C1032.72 932.129 1031.78 930.156 1030.78 928.219C1026.22 919.36 1018.11 908.986 1006.94 910.094C997.691 911.01 991.275 919.481 987.062 926.969C986.174 928.548 985.344 930.177 984.562 931.812C982.644 935.826 980.865 939.893 979.312 944.062C976.586 951.383 974.355 958.893 972.125 966.375C968.744 977.718 965.483 989.106 962.062 1000.44C959.096 1010.27 956.196 1020.19 952.438 1029.75C951.142 1033.05 949.658 1036.23 947.906 1039.31C947.798 1039.5 947.673 1039.68 947.562 1039.88C945.482 1035.97 943.714 1031.89 942.188 1027.75C938.516 1017.79 935.993 1007.53 933.562 997.219C927.549 971.708 921.994 946.099 916.094 920.562C914.029 911.627 911.907 902.68 909.688 893.781C907.885 886.554 906.03 879.341 903.844 872.219C903.062 869.671 902.225 867.129 901.312 864.625C897.988 855.507 892.806 843.751 882.125 841.781C880.924 841.56 879.689 841.462 878.469 841.531C876.988 841.616 875.531 841.941 874.156 842.5C871.139 843.728 868.664 845.976 866.625 848.469C863.332 852.495 860.924 857.228 858.844 861.969C854.753 871.29 851.895 881.108 849.312 890.938C847.289 898.641 845.386 906.379 843.531 914.125C839.704 930.107 836.079 946.141 832.531 962.188C829.489 975.948 826.482 989.724 823.812 1003.56C821.009 1018.1 818.615 1032.73 815.906 1047.28C810.924 1074.05 805.576 1100.74 799.219 1127.22C796.397 1138.97 793.359 1150.67 790.125 1162.31C787.123 1173.12 783.861 1184.08 779.062 1194.25C778.385 1195.69 777.676 1197.11 776.906 1198.5C776.236 1199.71 775.513 1200.91 774.75 1202.06C774.082 1203.07 773.384 1204.06 772.625 1205C772.126 1205.62 771.602 1206.2 771.062 1206.78C769.774 1208.18 767.182 1211.16 764.938 1210.59C763.744 1210.29 762.678 1209.58 761.688 1208.88C759.879 1207.59 758.188 1206.07 756.625 1204.5C751.923 1199.78 748.271 1194.19 745.125 1188.34C739.322 1177.56 734.911 1166.04 730.625 1154.59C725.876 1141.9 721.339 1129.11 717.156 1116.22C710.011 1094.2 703.787 1071.93 698.438 1049.41C691.129 1018.64 685.339 987.581 679.562 956.5C677.565 945.755 675.56 935.015 673.5 924.281C672.088 916.922 670.592 909.56 669.25 902.188C667.949 895.04 666.705 887.893 665.562 880.719C663.393 867.089 661.455 853.437 658.875 839.875C657.979 835.167 657.032 830.447 655.938 825.781C655.27 822.938 654.617 820.044 653.562 817.312C652.567 814.736 651.198 812.296 649.531 810.094C648.137 808.251 646.52 806.554 644.625 805.219C643.361 804.328 641.948 803.585 640.438 803.219C637.67 802.548 635.057 803.318 632.562 804.5C631.331 805.083 630.106 805.749 629.031 806.594C627.124 808.093 625.656 810.139 624.344 812.156C622.808 814.515 621.472 816.966 620.188 819.469C619.405 820.994 618.642 822.545 617.906 824.094C616.904 826.204 615.943 828.332 615 830.469C613.746 833.31 612.526 836.16 611.344 839.031C609.768 842.859 608.247 846.734 606.75 850.594C604.804 855.613 602.834 860.623 600.844 865.625C598.43 871.69 595.981 877.725 593.469 883.75C591.75 887.872 590.013 891.986 588.188 896.062C587.069 898.561 585.979 901.117 584.625 903.5C583.506 905.47 582.224 907.36 580.844 909.156C579.955 910.313 578.961 911.466 577.906 912.562C577.652 912.238 577.394 911.931 577.156 911.594C573.615 906.567 571.123 900.802 568.688 895.188C566.951 891.185 565.102 887.233 563.188 883.312C561.624 880.111 560.07 876.759 557.906 873.906C556.225 871.69 554.18 869.742 551.875 868.188C550.562 867.302 549.185 866.567 547.719 865.969C540.89 863.183 534.644 866.593 529.281 870.75C520.712 877.392 513.657 885.753 505.281 892.625C505.264 892.639 505.236 892.642 505.219 892.656C505.157 892.68 505.094 892.669 505.031 892.688C504.696 892.786 504.349 892.86 504 892.875C502.918 892.922 501.936 892.632 500.969 892.188C500.931 892.163 500.885 892.122 500.844 892.094C500.722 892.011 500.619 891.963 500.5 891.875C500.253 891.691 500.019 891.477 499.781 891.281C499.107 890.727 498.451 890.157 497.812 889.562C495.358 887.277 493.048 884.811 490.812 882.312C489.843 881.229 488.906 880.143 487.969 879.031C486.698 877.524 485.434 875.991 484.219 874.438C479.252 868.085 474.576 861.333 467.781 856.75C459.566 851.209 448.646 850.486 439.5 854.094C433.571 856.432 428.359 860.339 423.406 864.281C421.139 866.086 418.911 867.917 416.719 869.812C413.805 872.331 410.992 874.956 410.219 878.906C409.98 880.125 409.947 881.355 409.938 882.594C409.918 885.02 409.914 887.82 410.969 890.062C411.155 890.458 411.322 890.876 411.594 891.219C412.08 891.832 412.555 892.49 413.219 892.906C414.09 893.453 415.076 893.878 416.094 894.031C417.019 894.171 417.985 893.911 418.906 893.75C419.223 893.695 419.49 893.509 419.781 893.375C421.047 892.793 422.174 891.836 423.25 890.969C425.071 889.501 426.851 887.965 428.594 886.406C432.913 882.544 437.207 878.61 442.031 875.375C444.164 873.945 446.452 872.553 448.938 871.844C450.017 871.536 451.209 871.375 452.312 871.656C454.926 872.322 457.056 874.338 458.906 876.188C461.482 878.762 463.802 881.542 466.125 884.344C467.938 886.531 469.735 888.768 471.531 890.969C473.058 892.839 474.594 894.685 476.188 896.5C483.248 904.542 491.711 913.089 503.188 913.094C511.224 913.097 517.289 908.978 523.125 903.875C526.229 901.161 529.133 898.241 532.062 895.344C534.57 892.863 537.146 890.435 539.812 888.125C540.468 887.557 541.137 887.014 541.812 886.469C542.976 887.921 543.926 889.68 544.719 891.219C546.525 894.727 548.151 898.349 549.719 901.969C550.885 904.66 551.99 907.385 553.188 910.062C554.048 911.987 554.942 913.907 555.906 915.781C560.118 923.97 565.862 932.281 575.656 933.781C577.285 934.031 578.943 933.997 580.562 933.688C582.139 933.386 583.664 932.816 585.094 932.094C594.66 927.264 600.233 917.464 604.812 908.219C612.238 893.229 618.031 877.443 624.188 861.906C627.539 853.449 630.887 844.988 634.469 836.625C634.973 835.447 635.541 834.297 636.062 833.125C636.281 833.95 636.545 834.765 636.75 835.594C638.558 842.883 639.966 850.265 641.281 857.656C642.97 867.152 644.399 876.693 645.906 886.219C647.785 898.095 649.701 909.959 651.719 921.812C660.275 972.067 670.117 1022.16 682.625 1071.59C686.304 1086.13 690.229 1100.6 694.438 1115C699.405 1131.99 704.863 1148.9 711.438 1165.34C716.223 1177.31 721.624 1189.06 728.156 1200.19C731.683 1206.19 735.508 1212.09 740.031 1217.41C746.916 1225.49 755.644 1231.72 766.719 1231.09C779.064 1230.4 787.348 1220.54 793.031 1210.53C798.386 1201.1 802.186 1190.82 805.594 1180.56C809.895 1167.61 813.448 1154.42 816.781 1141.19C819.471 1130.51 822.059 1119.8 824.375 1109.03C828.89 1088.04 832.69 1066.93 836.719 1045.84C842.753 1014.26 848.981 982.682 855.625 951.219C859.801 931.441 864.327 911.785 870.219 892.438C872.063 886.383 873.988 880.331 876.219 874.406C877.056 872.183 877.965 869.942 878.969 867.75C880.132 870.387 881.126 873.094 882.031 875.812C886.423 889.009 889.701 902.607 892.938 916.125C898.695 940.177 904.007 964.309 909.969 988.312C913.018 1000.59 916.155 1012.87 919.75 1025C921.389 1030.53 923.125 1036.03 925.125 1041.44C926.555 1045.31 928.116 1049.14 930.062 1052.78C932.434 1057.22 935.508 1061.48 940.188 1063.66C941.967 1064.48 943.858 1065.01 945.812 1065.19C947.429 1065.34 949.064 1065.25 950.656 1064.94C958.923 1063.29 963.348 1055.93 966.812 1048.94C971.183 1040.11 974.412 1030.74 977.5 1021.41C981.962 1007.92 985.772 994.236 989.812 980.625C993.519 968.139 997.367 955.569 1002.59 943.625C1004.11 940.158 1005.73 936.664 1007.88 933.531C1008.14 933.149 1008.46 932.802 1008.75 932.438C1008.91 932.658 1009.07 932.869 1009.22 933.094C1010.18 934.517 1011.04 936.018 1011.84 937.531C1014.35 942.248 1016.46 947.182 1018.47 952.125C1019.63 954.981 1020.74 957.838 1021.84 960.719C1022.79 963.195 1023.76 965.681 1024.78 968.125C1025.53 969.897 1026.28 971.634 1027.09 973.375C1030.56 980.782 1035.58 990.247 1044.44 991.906C1045.81 992.164 1047.2 992.231 1048.59 992.125C1056.09 991.556 1061.04 986.381 1064.62 980.219C1067.08 975.997 1068.92 971.471 1070.78 966.969C1072.92 961.812 1075.08 956.66 1077.28 951.531C1079.53 946.301 1081.78 941.051 1084.41 936C1085.19 934.487 1086.01 932.976 1086.97 931.562C1087.25 931.151 1087.55 930.756 1087.88 930.375C1087.89 930.363 1087.9 930.356 1087.91 930.344C1087.94 930.361 1087.97 930.39 1088 930.406C1088.53 930.663 1089.58 932.1 1090.03 932.688C1091.57 934.696 1092.93 936.858 1094.22 939.031C1098.26 945.853 1101.69 953.036 1104.97 960.25C1109.52 970.272 1113.42 980.569 1117.81 990.656C1120.53 996.889 1123.36 1003.15 1127 1008.91C1130.87 1015.03 1139.15 1021.36 1147.21 1019.81C1150.74 1019.13 1156.29 1013.15 1158.54 1010.44C1162.28 1005.95 1166.79 992.179 1169.14 978.995C1175.37 943.867 1179.52 906.813 1180.53 881.56C1181.11 867.034 1184.51 810.609 1186.33 776.958C1194.37 627.828 1193.35 648.477 1201.29 546.203C1208.6 452 1213.55 445.908 1216.26 445.341C1221.89 444.707 1227.21 447.765 1259.25 686.2C1273.41 791.534 1275.87 798.089 1281.3 832.111C1287.27 869.565 1303.77 960.142 1308.12 981.748C1315.2 1016.9 1323.47 1053.29 1333.78 1085.56C1338.08 1099.04 1342.91 1114.04 1349.92 1128.27C1357.58 1143.83 1361.3 1146.67 1377.97 1147.81C1388.1 1148.51 1394.2 1136.74 1398.44 1128.38C1399.26 1126.74 1400.04 1125.11 1400.78 1123.44C1401.6 1121.59 1402.38 1119.72 1403.12 1117.84C1404.4 1114.65 1405.59 1111.4 1406.72 1108.16C1413.3 1089.2 1418.29 1069.68 1423.12 1050.22C1427.96 1030.78 1432.47 1011.26 1436.88 991.719C1438.14 986.101 1439.4 980.479 1440.66 974.858C1442.83 965.153 1445.03 955.452 1447.34 945.781C1452.63 923.711 1458.34 901.711 1465.47 880.156C1466.77 876.21 1468.09 872.273 1469.53 868.375C1470.56 865.602 1471.63 862.83 1473.03 860.219C1474.21 858.012 1475.74 856.081 1477.41 854.219C1477.67 853.923 1477.94 853.63 1478.22 853.344C1479.53 854.56 1480.68 856.02 1481.62 857.469C1483.98 861.093 1485.8 865.066 1487.5 869.031C1493 881.901 1497.27 895.303 1501.53 908.625C1506.39 923.809 1511.09 939.05 1516.09 954.188C1519.29 963.86 1522.54 973.54 1526.25 983.031C1529.4 991.092 1532.92 999.765 1538.62 1006.41C1540.55 1008.65 1542.78 1010.97 1545.34 1012.47C1547.45 1013.7 1549.8 1014.18 1552.22 1014.28C1554.96 1014.39 1557.89 1014.4 1560.5 1013.44C1562.86 1012.56 1564.75 1010.99 1566.5 1009.22C1569.82 1005.86 1572.33 1001.83 1574.5 997.656C1578.65 989.692 1581.67 981.207 1584.72 972.781C1588.01 963.706 1591.28 954.634 1594.75 945.625C1595.97 942.447 1597.23 939.277 1598.59 936.156C1599.67 933.704 1600.82 931.247 1602.28 929C1603.05 927.816 1603.92 926.719 1604.84 925.656C1604.95 925.536 1605.08 925.432 1605.19 925.312C1606.24 926.456 1607.17 927.749 1608 929.031C1611.06 933.774 1613.65 938.81 1616.25 943.812C1618.44 948.028 1620.57 952.295 1622.72 956.531C1624.4 959.842 1626.07 963.142 1627.78 966.438C1629.02 968.828 1630.27 971.215 1631.53 973.594C1632.6 975.613 1633.68 977.626 1634.78 979.625C1635.49 980.902 1636.17 982.204 1637 983.406C1640.09 987.875 1644.26 991.988 1649.59 993.562C1650.93 993.959 1652.32 994.161 1653.72 994.188C1655.13 994.214 1656.55 994.054 1657.91 993.688C1668.39 990.864 1672.26 978.783 1675.16 969.625C1675.9 967.286 1676.61 964.952 1677.28 962.594C1678.08 959.816 1678.82 957.012 1679.56 954.219C1685.67 931.167 1690.62 907.846 1695.75 884.562C1699.12 869.269 1702.59 853.984 1706.22 838.75C1708.69 828.383 1711.16 818.007 1714.06 807.75C1716.02 800.837 1718.24 793.966 1720.53 787.156C1722.4 781.583 1724.35 776.019 1726.62 770.594C1727.23 772.958 1727.85 775.33 1728.34 777.719C1730.82 789.719 1732.2 801.871 1733.88 814C1737.97 843.705 1742.57 873.347 1746.59 903.062C1748.97 920.65 1750.75 938.299 1753.22 955.875C1753.73 959.53 1754.26 963.185 1754.75 966.844C1755.65 973.549 1756.42 980.276 1757.16 987C1757.41 989.282 1758.99 1000.06 1759.38 1002.32C1759.66 1003.9 1759.9 1002.56 1760.63 1004C1761.02 1004.78 1760.21 999.947 1760.81 1000.59C1761.56 1001.39 1762.29 1001.93 1763.28 1002.41C1765.58 1003.5 1767.88 1003.13 1770.25 1002.72C1772.42 1002.34 1774.43 1001.82 1776.16 1000.34C1780.58 996.572 1781.21 1000.68 1780.7 995.565C1780.08 989.485 1777.57 971.956 1776.72 965.906C1775.61 958.014 1774.45 950.138 1773.31 942.25C1770.37 921.888 1768.27 901.412 1765.47 881.031C1764.25 872.145 1762.95 863.263 1761.53 854.406C1760.38 847.224 1759.08 840.081 1758.09 832.875C1755.94 817.226 1754.21 801.529 1751.66 785.938C1750.51 778.935 1749.23 771.932 1747.44 765.062C1746.25 760.493 1744.86 755.88 1742.72 751.656C1739.79 745.897 1735.24 741.126 1728.44 740.688C1720.1 740.149 1714.59 746.153 1710.88 752.875C1707.69 758.638 1705.5 764.89 1703.34 771.094C1700.8 778.427 1698.38 785.822 1696.03 793.219C1692.25 805.103 1688.49 817.032 1685.31 829.094C1684.3 832.923 1683.43 836.769 1682.53 840.625C1681.13 846.606 1679.76 852.609 1678.38 858.594C1673.68 878.87 1669.14 899.183 1664.62 919.5C1661.94 931.571 1659.35 943.651 1656.25 955.625C1655.26 959.447 1654.23 963.276 1652.91 967C1652.84 967.175 1652.75 967.404 1652.69 967.594C1652.21 966.687 1651.74 965.762 1651.28 964.875C1649.23 960.887 1647.32 956.851 1645.38 952.812C1642.34 946.521 1639.3 940.205 1636.22 933.938C1633.13 927.657 1629.98 921.395 1625.94 915.656C1621.9 909.923 1616.7 904.249 1609.72 902.312C1608.27 901.912 1606.78 901.7 1605.28 901.656C1603.16 901.595 1600.95 901.841 1598.94 902.531C1596.5 903.368 1594.33 904.907 1592.38 906.562C1588.96 909.465 1586.02 913.024 1583.69 916.844C1582.7 918.458 1581.87 920.133 1581.06 921.844C1577.04 930.424 1573.53 939.307 1570.41 948.25C1567.83 955.619 1565.49 963.034 1562.66 970.312C1561.04 974.456 1559.34 978.572 1557.44 982.594C1556.3 985.011 1555.05 987.469 1553.59 989.75C1553.49 989.604 1553.35 989.496 1553.25 989.344C1550.96 985.871 1549.26 982.032 1547.62 978.219C1542.63 966.549 1538.62 954.437 1534.69 942.375C1528.67 923.904 1523.14 905.247 1517 886.812C1514.73 879.985 1512.4 873.183 1509.81 866.469C1507.95 861.633 1505.95 856.825 1503.56 852.219C1502.71 850.576 1501.82 848.977 1500.84 847.406C1495.33 838.536 1486.26 828.689 1474.69 830.938C1467.53 832.329 1461.99 838.113 1457.97 843.844C1453.12 850.754 1449.89 858.573 1447.12 866.5C1445.34 871.613 1443.73 876.785 1442.16 881.969C1435.55 903.766 1429.99 925.891 1424.94 948.094C1422.54 958.628 1420.33 969.202 1418 979.75C1412.97 1002.51 1407.72 1025.25 1402.12 1047.88C1398.99 1060.54 1395.65 1073.12 1391.81 1085.59C1389.39 1093.46 1386.87 1101.31 1383.75 1108.94C1381.68 1114.01 1379.36 1119.34 1375.75 1123.53C1375.24 1124.13 1374.66 1124.67 1374.06 1125.19C1373.25 1124.29 1372.52 1123.29 1371.88 1122.34C1369.9 1119.46 1368.31 1116.38 1366.97 1113.16C1365.13 1108.77 1363.62 1104.23 1362.12 1099.72C1360.33 1094.29 1358.62 1088.84 1357.06 1083.34C1352.32 1066.58 1348.42 1049.58 1344.72 1032.56C1340.15 1011.57 1336 990.483 1332 969.375C1324.13 927.823 1303.98 788.877 1297.39 747.105C1292.17 714.013 1273.63 561.946 1267.15 518.026C1245.88 374.07 1223.31 373.149 1215.48 373.356Z" fill="#ffffff" fill-rule="nonzero" opacity="1" stroke="none" vectornator:layerName="Curve"/>
<path d="M1315.85 595.791L1315.85 814.291L1333.85 814.291L1351.85 814.291L1351.85 720.291L1351.85 626.291L1370.25 626.291L1388.65 626.291L1395.65 637.491C1411.85 663.391 1416.05 673.591 1442.35 752.491L1463.05 814.291L1501.45 814.291L1539.85 814.291L1540.05 727.991L1540.35 641.791L1566.85 641.191C1596.75 640.591 1602.55 639.491 1617.35 632.391C1640.55 621.291 1657.35 600.091 1668.85 567.691C1675.75 548.091 1678.75 530.791 1679.55 504.791C1681.45 444.491 1664.55 400.191 1634.45 385.891C1618.35 378.291 1609.55 377.291 1552.15 377.291L1503.85 377.291L1503.65 593.891L1503.35 810.491L1482.95 750.691C1449.95 653.691 1442.65 635.791 1431.15 623.491L1425.25 617.291L1431.35 613.091C1439.85 607.091 1451.05 596.091 1456.45 588.591C1462.25 580.491 1470.75 562.591 1474.75 550.291C1486.55 513.791 1486.75 471.691 1475.35 435.391C1467.15 409.591 1453.85 391.391 1437.65 383.791C1424.45 377.591 1420.65 377.291 1365.35 377.291L1315.85 377.291L1315.85 595.791ZM1412.85 424.291C1428.75 429.991 1441.55 451.791 1444.95 478.691C1446.55 491.591 1445.55 514.891 1442.95 526.291C1438.55 545.691 1431.55 560.691 1422.65 569.591C1412.15 580.191 1404.25 582.191 1373.65 582.291L1351.85 582.291L1351.85 501.691L1351.85 421.091L1379.15 421.491C1404.65 421.891 1406.75 422.091 1412.85 424.291ZM1604.85 423.691C1618.85 428.291 1626.55 434.791 1632.45 446.891C1650.25 483.891 1643.25 554.191 1619.15 579.391C1612.85 585.991 1603.85 591.091 1592.85 594.391C1586.35 596.291 1582.25 596.591 1562.65 596.991L1539.85 597.491L1539.85 509.291L1539.85 421.091L1569.65 421.491C1594.55 421.891 1600.25 422.191 1604.85 423.691Z" fill="#ffffff" fill-rule="nonzero" opacity="1" stroke="none" vectornator:layerName="path"/>
<path d="M934.006 597.576L934.006 815.576L952.006 815.576L970.006 815.576L970.006 716.576L970.006 617.576L1034.01 617.576L1098.01 617.576L1098.01 716.576L1098.01 815.576L1116.01 815.576L1134.01 815.576L1134.01 597.576L1134.01 379.576L1116.01 379.576L1098.01 379.576L1098.01 476.576L1098.01 573.576L1034.01 573.576L970.006 573.576L970.006 476.576L970.006 379.576L952.006 379.576L934.006 379.576L934.006 597.576Z" fill="#ffffff" fill-rule="nonzero" opacity="1" stroke="none" vectornator:layerName="path"/>
<path d="M1874.03 865.312C1866.1 864.533 1857.94 872.728 1856.56 874.094C1853.32 877.308 1850.57 881.013 1848.06 884.812C1845.04 889.384 1842.37 894.175 1839.84 899.031C1835.83 906.733 1832.42 914.729 1829.03 922.719C1824.77 932.758 1820.6 942.838 1816.56 952.969C1815.55 955.516 1814.53 958.07 1813.53 960.625C1812.87 962.329 1812.21 964.04 1811.56 965.75C1810.55 968.412 1809.56 971.057 1808.62 973.75C1808.09 975.306 1807.42 976.975 1807.25 978.625C1807.18 979.344 1805.58 984.517 1805.8 985.18C1806.07 986.011 1807.87 982.644 1808.47 983.281C1809.34 984.208 1810.48 984.889 1811.62 985.438C1812.2 985.713 1812.9 985.646 1813.53 985.688C1813.81 985.706 1814.07 985.659 1814.34 985.625C1815.41 985.494 1816.47 985.078 1817.47 984.688C1818.79 984.171 1820.12 983.591 1821.41 983C1822.23 982.623 1823.03 982.237 1823.84 981.844C1826.21 980.701 1829.1 979.691 1830.69 977.469C1831.48 976.36 1831.87 974.987 1832.34 973.719C1832.82 972.432 1833.31 971.162 1833.78 969.875C1835.39 965.533 1836.98 961.171 1838.62 956.844C1843.75 943.368 1849.26 930.017 1855.59 917.062C1859.12 909.852 1862.89 902.659 1867.44 896.031C1868.79 894.062 1870.2 892.141 1871.84 890.406C1872.01 890.232 1872.2 890.076 1872.38 889.906C1875.13 893.356 1876.95 897.648 1878.62 901.625C1882.01 909.647 1885.86 917.486 1888.84 925.688C1895.03 942.7 1896.07 944.111 1902.34 943.051C1903.99 942.772 1912.02 941.55 1913.39 940.638C1915.23 939.41 1913.56 932.647 1911.12 925.487C1908.2 916.904 1904.18 907.75 1903.81 906.875C1901.95 902.479 1900.29 897.979 1898.56 893.531C1897.67 891.244 1896.76 888.967 1895.78 886.719C1895.09 885.129 1894.36 883.555 1893.59 882C1889.68 874.107 1883.86 866.278 1874.03 865.312Z" fill="#ffffff" fill-rule="nonzero" opacity="1" stroke="none"/>
</g>
</g>
<g id="Text" vectornator:layerName="Text" visibility="hidden">
<g opacity="0" vectornator:layerName="g">
<path d="M825.006 367.576C787.906 372.676 764.206 396.576 753.006 440.076C748.806 456.476 747.606 469.476 748.306 491.276C749.106 517.676 752.706 533.776 762.406 553.576C768.706 566.576 775.506 576.076 786.506 587.176C797.506 598.276 808.806 606.976 828.506 619.576C846.606 631.176 855.106 637.576 865.406 647.476C884.906 666.376 890.706 681.676 889.706 711.476C889.106 729.176 887.006 739.376 881.406 751.176C874.606 765.576 865.106 775.376 852.506 781.176C847.506 783.476 844.806 783.976 836.006 784.376C810.606 785.376 790.806 775.376 782.506 757.176C778.606 748.776 776.006 735.976 776.006 724.976L776.006 717.576L757.506 717.576L738.906 717.576L739.506 726.776C741.706 759.676 749.906 785.176 763.906 801.876C778.806 819.676 802.006 828.576 833.506 828.576C858.906 828.576 875.606 822.676 890.106 808.876C903.106 796.376 911.706 781.876 918.506 760.776C932.706 716.676 930.406 668.976 912.306 633.076C901.406 611.476 885.606 596.076 847.506 569.676C822.406 552.376 809.906 542.476 803.506 534.676C791.006 519.776 784.906 501.576 784.806 479.576C784.806 443.176 801.006 416.176 825.906 411.576C840.206 408.876 856.706 411.976 867.106 419.176C874.406 424.176 880.306 435.776 881.806 448.076L882.506 454.076L900.306 454.376L918.006 454.576L918.006 447.276C918.006 431.276 912.906 412.576 904.506 398.376C895.106 382.276 882.106 373.076 862.706 368.976C853.906 367.076 833.806 366.376 825.006 367.576Z" fill="#ffffff" fill-rule="nonzero" opacity="1" stroke="none" vectornator:layerName="path"/>
<g opacity="1" vectornator:layerName="path">
<path d="M1206.1 390.5C1204 392.4 1201.3 396.3 1200 399.1C1191 420 1180 488.8 1176 548.5C1174.9 565 1173.6 585.2 1173 593.5C1169.4 645.9 1168 670.4 1167.1 701C1166.5 720 1165.5 742.2 1165 750.5C1164.4 758.7 1163.1 788 1162 815.5C1158.9 893.6 1156.1 933.3 1151.4 966C1148.1 989.4 1144.3 1003.6 1141.6 1002.7C1139.5 1002.1 1132.1 987.6 1125.8 972.1C1116 947.6 1105.8 927.9 1099.6 921.5C1089.8 911.5 1080.5 913.1 1071.4 926.6C1067.4 932.6 1064.8 938.4 1057.1 959.4C1052.4 972.1 1048.6 977.8 1046.3 975.9C1044.1 974 1037.4 960.2 1032.4 947.3C1026.8 932.7 1023.7 926.8 1019.5 922.1C1009.4 911 999.2 915.3 990 934.4C984.7 945.7 983.1 950.2 973.1 984.5C962.7 1020 958.4 1032.7 954.2 1040.4C949.8 1048.5 948 1050 945.4 1047.9C943 1046 937.8 1034.5 934 1022.5C930.8 1012.5 928.9 1004.6 914.1 939C900.7 879.9 896.3 864.6 889.9 854.6C886.7 849.4 882.1 846.9 877.7 847.7C871 849 863.8 862 857.2 885C850.9 906.7 833.4 983.9 828.5 1011.5C816.2 1081.9 806.9 1124.9 795.6 1165.2C788.9 1188.8 783.3 1201.9 776.5 1209.8C768.5 1219 763.3 1219 753.7 1210.1C742.7 1199.7 735.1 1185 721.2 1146.5C701.4 1092 689.7 1046.1 674.6 963C672.1 949.5 668.1 928.1 665.6 915.5C663.1 902.8 659.9 884.4 658.5 874.5C654.7 848.8 650.3 825.9 647.9 819.5C645.8 814 641.2 809 638.2 809C637.3 809 635.1 809.9 633.3 811C629.4 813.3 622.2 827.6 613.1 851C602 879.7 593.2 900.6 589.9 906.5C586.3 912.9 580 920 578 920C574.6 920 569.2 911.9 563.1 897.6C559.6 889.5 555.4 881 553.8 878.6C551.1 874.4 546 871 542.6 871C538.3 871 532.7 875 522.1 885.4C515.7 891.6 509.5 897.3 508.3 897.9C505.4 899.4 501.5 899.3 498.2 897.6C494.6 895.7 484.7 885.3 477.6 875.8C467.5 862.2 461.2 858 451.3 858C442.4 858 435.9 861.5 421.3 873.9C416.3 878.2 416 878.6 416 883.2C416 885.8 416.4 888 416.9 888C417.4 888 421.3 884.8 425.6 880.9C439.9 867.9 447.9 863.8 454.6 866C459.7 867.7 463.7 871.6 474.6 885.1C487.9 901.7 494.9 907 503.2 907C510.2 906.9 514.8 904 527 891.8C533.3 885.5 539.6 880.1 540.9 879.7C545.3 878.6 548.5 883.4 557.4 904.5C562.8 917.3 567.4 924 572.3 926.3C577.1 928.6 579.9 928.4 584.5 925.4C593.1 919.8 599.5 908 614 871.1C631.3 827.1 634.8 819.5 637.3 820.3C640.2 821.2 645.2 841.7 650 873C665.3 972 681.7 1050.1 700.6 1114.3C712.8 1155.7 724.1 1183 737.6 1203.8C747.4 1218.8 755.5 1225 765.3 1225C782.6 1225 795.1 1201.9 810.4 1141.4C817.4 1113.7 820.1 1100.9 829.4 1051.5C837.6 1008.2 847.7 957.9 853.5 931.9C860.9 898.8 871.5 865.5 876.6 859.4L879 856.5L881.3 859.2C886.1 865.1 892.5 886.4 902.5 930C923.6 1022.1 932.3 1050.8 941.1 1057.1C945.4 1060.1 951.2 1059.7 955 1055.9C961.8 1049 969.6 1028.8 982.1 985C993.7 944.7 1002.6 925 1009.1 925C1012.9 925 1019.1 936.2 1027.1 957.2C1035.2 978.7 1040.4 986 1047.3 986C1054 985.9 1058.3 981 1064 967.2C1081.5 924.8 1083.9 921.2 1091 925C1096.2 927.8 1107.2 948.1 1118 975C1129.9 1004.6 1135.8 1014 1142.7 1014C1146.5 1014 1150.7 1009.4 1152.9 1002.7C1161.7 976.3 1168.6 893.8 1174 750C1175 721.1 1176.4 689.4 1176.9 679.5C1177.5 669.6 1178.5 649.8 1179 635.5C1179.6 621.2 1180.3 608.8 1180.5 608C1180.7 607.2 1181.6 594.8 1182.5 580.5C1185.6 527.4 1187.8 506.5 1194.6 462.6C1199.3 432.5 1203.6 414.8 1209 403.2C1212.1 396.6 1214.3 394.8 1216.5 397.1C1218.9 399.5 1224.8 416.5 1228.4 431.3C1232.3 447.1 1239.4 487.3 1244 519.5C1245.7 531 1247.9 545.7 1249 552C1250.1 558.3 1252.5 575 1254.5 589C1256.5 603 1259.6 624.4 1261.5 636.5C1263.4 648.6 1266.6 669.5 1268.5 683C1270.5 696.5 1274.3 720.5 1277 736.5C1279.6 752.4 1283.9 778.5 1286.5 794.5C1293.4 838.1 1294.2 842.9 1302.4 890.5C1319.7 990.3 1325.9 1022 1336.4 1063.5C1342.6 1088.2 1351.2 1114.4 1356.5 1125C1360.9 1133.8 1367.5 1140.6 1372.3 1141.5C1391.5 1145.1 1403.6 1112.6 1434.5 973.5C1444.6 928 1453.1 896.4 1461.6 871.9C1466 859.1 1468.1 855 1472.7 850C1476.8 845.4 1478.7 845.1 1482.3 848.4C1489.7 855.2 1496.4 871.3 1510 914.5C1530.6 980 1536.8 995.8 1544.9 1003.9C1548.6 1007.6 1549.5 1008 1554 1008C1558.3 1008 1559.3 1007.6 1562.4 1004.4C1567 999.7 1571.8 990.1 1577.4 974.5C1592.7 932.2 1594.6 927.8 1600.1 921.5C1606.8 913.9 1610.1 917.5 1626.6 950.2C1633.6 964.1 1640.6 977.4 1642.2 979.8C1649.5 990.4 1658.6 990.6 1664.3 980.2C1669.1 971.4 1676.2 944.6 1687.5 892.7C1695.8 854.5 1704.5 817.8 1708.5 804.2C1716.3 778.3 1722.9 760.9 1726.3 758.2C1727.6 757.1 1728.1 757.2 1729.5 759.3C1732 763.2 1735.6 779.2 1738 797C1740.7 817.8 1742.8 832 1748.9 874C1751.6 892.4 1754.6 914.5 1755.5 923C1756.4 931.5 1758.2 945.9 1759.5 955C1760.8 964.1 1762.4 976.2 1763 982C1764.6 997.3 1764.7 997.3 1768.4 996.6C1774.9 995.3 1775.1 999.1 1766.5 939.5C1765.7 934 1763.7 918.2 1762.1 904.4C1759.4 882.1 1755.9 858.1 1753 842C1752.5 839 1750.7 825.9 1749.1 813C1742.7 762.4 1737.6 747 1727.4 747C1721.6 747 1717.2 752.4 1712.1 765.5C1706.8 779.3 1693.5 821.6 1690.5 834.5C1682 870.7 1678.8 884.9 1670 924.5C1661.5 963.1 1658.4 973.8 1654.6 976.9C1652 979.1 1649.6 976.1 1643 962.5C1639.8 955.9 1634 943.8 1630 935.7C1619.6 914.1 1611.2 906 1601.5 908.4C1597.6 909.4 1591.6 915.4 1588.2 921.7C1584.8 928.2 1578.4 944 1575 954.5C1568.3 975.3 1560.7 992.4 1556.4 996.7L1553.9 999.2L1550.8 996.4C1544.6 990.5 1536.5 970 1522.5 925C1505 868.6 1499.3 854.2 1490.9 844.6C1486.1 839.1 1482.4 837 1477.7 837C1470.6 837 1462.6 845.6 1456.6 859.5C1449.4 876.3 1436.8 922.1 1427.5 966C1419.1 1005.2 1407.2 1055.4 1402.1 1073.2C1391.9 1108.7 1385.7 1123.5 1378.3 1130C1374.2 1133.6 1371.8 1133 1367.8 1127.6C1362.9 1120.9 1360.5 1115.4 1354.7 1097.5C1343.1 1061.7 1327.9 988.1 1308.5 874C1303.8 846.2 1298.2 813.6 1296 801.5C1293.9 789.4 1290.5 769.1 1288.6 756.5C1286.7 743.8 1283.3 722.2 1281.1 708.5C1275.9 675.5 1269.1 630.7 1263.5 593C1241.2 441.1 1234.2 405.2 1223.9 392.2C1218.9 385.8 1212 385.2 1206.1 390.5Z" fill="#ffffff" fill-rule="nonzero" stroke="none"/>
<path d="M1215.94 380.625C1214.66 380.506 1213.36 380.539 1212.09 380.719C1210.41 380.958 1212.11 380.715 1201.97 385.656C1201.23 386.288 1200.72 387.074 1200.34 387.906C1200.19 388.07 1199.51 388.728 1199.12 389.219C1197.55 391.215 1196.13 393.358 1194.97 395.625C1193.85 397.809 1193.06 400.18 1192.28 402.5C1191.26 405.542 1190.36 408.62 1189.53 411.719C1187.29 420.116 1185.51 428.622 1183.88 437.156C1178.41 465.629 1174.75 494.462 1172 523.312C1169.9 545.312 1168.77 567.392 1167.25 589.438C1165.38 616.573 1163.46 643.735 1162.19 670.906C1161.25 690.804 1160.81 710.693 1159.94 730.594C1159.24 746.56 1158.25 762.535 1157.53 778.5C1156.34 805.105 1155.37 831.711 1154.09 858.312C1153.29 875.158 1152.39 891.991 1151.19 908.812C1149.87 927.297 1148.17 945.773 1145.56 964.125C1144.48 971.729 1143.31 979.34 1141.66 986.844C1141.4 988.019 1141.07 989.175 1140.78 990.344C1140.27 989.347 1139.71 988.381 1139.22 987.375C1135.91 980.639 1132.99 973.726 1130.16 966.781C1126.9 958.803 1123.46 950.905 1119.69 943.156C1116.61 936.822 1113.33 930.544 1109.5 924.625C1105.2 917.977 1099.38 911.391 1091.34 909.5C1089.88 909.155 1088.38 908.998 1086.88 909.031C1078.67 909.212 1072.23 915.134 1067.66 921.406C1063.53 927.059 1060.67 933.416 1058.06 939.875C1056.24 944.402 1054.51 948.954 1052.81 953.531C1051.38 957.411 1050.01 961.332 1048.28 965.094C1048.06 965.566 1047.82 966.028 1047.59 966.5C1047.22 965.777 1046.8 965.073 1046.44 964.344C1044.08 959.6 1041.95 954.739 1039.94 949.844C1038.7 946.836 1037.55 943.803 1036.34 940.781C1035.46 938.553 1034.55 936.322 1033.59 934.125C1032.72 932.129 1031.78 930.156 1030.78 928.219C1026.22 919.36 1018.11 908.986 1006.94 910.094C997.691 911.01 991.275 919.481 987.062 926.969C986.174 928.548 985.344 930.177 984.562 931.812C982.644 935.826 980.865 939.893 979.312 944.062C976.586 951.383 974.355 958.893 972.125 966.375C968.744 977.718 965.483 989.106 962.062 1000.44C959.096 1010.27 956.196 1020.19 952.438 1029.75C951.142 1033.05 949.658 1036.23 947.906 1039.31C947.798 1039.5 947.673 1039.68 947.562 1039.88C945.482 1035.97 943.714 1031.89 942.188 1027.75C938.516 1017.79 935.993 1007.53 933.562 997.219C927.549 971.708 921.994 946.099 916.094 920.562C914.029 911.627 911.907 902.68 909.688 893.781C907.885 886.554 906.03 879.341 903.844 872.219C903.062 869.671 902.225 867.129 901.312 864.625C897.988 855.507 892.806 843.751 882.125 841.781C880.924 841.56 879.689 841.462 878.469 841.531C876.988 841.616 875.531 841.941 874.156 842.5C871.139 843.728 868.664 845.976 866.625 848.469C863.332 852.495 860.924 857.228 858.844 861.969C854.753 871.29 851.895 881.108 849.312 890.938C847.289 898.641 845.386 906.379 843.531 914.125C839.704 930.107 836.079 946.141 832.531 962.188C829.489 975.948 826.482 989.724 823.812 1003.56C821.009 1018.1 818.615 1032.73 815.906 1047.28C810.924 1074.05 805.576 1100.74 799.219 1127.22C796.397 1138.97 793.359 1150.67 790.125 1162.31C787.123 1173.12 783.861 1184.08 779.062 1194.25C778.385 1195.69 777.676 1197.11 776.906 1198.5C776.236 1199.71 775.513 1200.91 774.75 1202.06C774.082 1203.07 773.384 1204.06 772.625 1205C772.126 1205.62 771.602 1206.2 771.062 1206.78C769.774 1208.18 767.182 1211.16 764.938 1210.59C763.744 1210.29 762.678 1209.58 761.688 1208.88C759.879 1207.59 758.188 1206.07 756.625 1204.5C751.923 1199.78 748.271 1194.19 745.125 1188.34C739.322 1177.56 734.911 1166.04 730.625 1154.59C725.876 1141.9 721.339 1129.11 717.156 1116.22C710.011 1094.2 703.787 1071.93 698.438 1049.41C691.129 1018.64 685.339 987.581 679.562 956.5C677.565 945.755 675.56 935.015 673.5 924.281C672.088 916.922 670.592 909.56 669.25 902.188C667.949 895.04 666.705 887.893 665.562 880.719C663.393 867.089 661.455 853.437 658.875 839.875C657.979 835.167 657.032 830.447 655.938 825.781C655.27 822.938 654.617 820.044 653.562 817.312C652.567 814.736 651.198 812.296 649.531 810.094C648.137 808.251 646.52 806.554 644.625 805.219C643.361 804.328 641.948 803.585 640.438 803.219C637.67 802.548 635.057 803.318 632.562 804.5C631.331 805.083 630.106 805.749 629.031 806.594C627.124 808.093 625.656 810.139 624.344 812.156C622.808 814.515 621.472 816.966 620.188 819.469C619.405 820.994 618.642 822.545 617.906 824.094C616.904 826.204 615.943 828.332 615 830.469C613.746 833.31 612.526 836.16 611.344 839.031C609.768 842.859 608.247 846.734 606.75 850.594C604.804 855.613 602.834 860.623 600.844 865.625C598.43 871.69 595.981 877.725 593.469 883.75C591.75 887.872 590.013 891.986 588.188 896.062C587.069 898.561 585.979 901.117 584.625 903.5C583.506 905.47 582.224 907.36 580.844 909.156C579.955 910.313 578.961 911.466 577.906 912.562C577.652 912.238 577.394 911.931 577.156 911.594C573.615 906.567 571.123 900.802 568.688 895.188C566.951 891.185 565.102 887.233 563.188 883.312C561.624 880.111 560.07 876.759 557.906 873.906C556.225 871.69 554.18 869.742 551.875 868.188C550.562 867.302 549.185 866.567 547.719 865.969C540.89 863.183 534.644 866.593 529.281 870.75C520.712 877.392 513.657 885.753 505.281 892.625C505.264 892.639 505.236 892.642 505.219 892.656C505.157 892.68 505.094 892.669 505.031 892.688C504.696 892.786 504.349 892.86 504 892.875C502.918 892.922 501.936 892.632 500.969 892.188C500.931 892.163 500.885 892.122 500.844 892.094C500.722 892.011 500.619 891.963 500.5 891.875C500.253 891.691 500.019 891.477 499.781 891.281C499.107 890.727 498.451 890.157 497.812 889.562C495.358 887.277 493.048 884.811 490.812 882.312C489.843 881.229 488.906 880.143 487.969 879.031C486.698 877.524 485.434 875.991 484.219 874.438C479.252 868.085 474.576 861.333 467.781 856.75C459.566 851.209 448.646 850.486 439.5 854.094C433.571 856.432 428.359 860.339 423.406 864.281C421.139 866.086 418.911 867.917 416.719 869.812C413.805 872.331 410.992 874.956 410.219 878.906C409.98 880.125 409.947 881.355 409.938 882.594C409.918 885.02 409.914 887.82 410.969 890.062C411.155 890.458 411.322 890.876 411.594 891.219C412.08 891.832 412.555 892.49 413.219 892.906C414.09 893.453 415.076 893.878 416.094 894.031C417.019 894.171 417.985 893.911 418.906 893.75C419.223 893.695 419.49 893.509 419.781 893.375C421.047 892.793 422.174 891.836 423.25 890.969C425.071 889.501 426.851 887.965 428.594 886.406C432.913 882.544 437.207 878.61 442.031 875.375C444.164 873.945 446.452 872.553 448.938 871.844C450.017 871.536 451.209 871.375 452.312 871.656C454.926 872.322 457.056 874.338 458.906 876.188C461.482 878.762 463.802 881.542 466.125 884.344C467.938 886.531 469.735 888.768 471.531 890.969C473.058 892.839 474.594 894.685 476.188 896.5C483.248 904.542 491.711 913.089 503.188 913.094C511.224 913.097 517.289 908.978 523.125 903.875C526.229 901.161 529.133 898.241 532.062 895.344C534.57 892.863 537.146 890.435 539.812 888.125C540.468 887.557 541.137 887.014 541.812 886.469C542.976 887.921 543.926 889.68 544.719 891.219C546.525 894.727 548.151 898.349 549.719 901.969C550.885 904.66 551.99 907.385 553.188 910.062C554.048 911.987 554.942 913.907 555.906 915.781C560.118 923.97 565.862 932.281 575.656 933.781C577.285 934.031 578.943 933.997 580.562 933.688C582.139 933.386 583.664 932.816 585.094 932.094C594.66 927.264 600.233 917.464 604.812 908.219C612.238 893.229 618.031 877.443 624.188 861.906C627.539 853.449 630.887 844.988 634.469 836.625C634.973 835.447 635.541 834.297 636.062 833.125C636.281 833.95 636.545 834.765 636.75 835.594C638.558 842.883 639.966 850.265 641.281 857.656C642.97 867.152 644.399 876.693 645.906 886.219C647.785 898.095 649.701 909.959 651.719 921.812C660.275 972.067 670.117 1022.16 682.625 1071.59C686.304 1086.13 690.229 1100.6 694.438 1115C699.405 1131.99 704.863 1148.9 711.438 1165.34C716.223 1177.31 721.624 1189.06 728.156 1200.19C731.683 1206.19 735.508 1212.09 740.031 1217.41C746.916 1225.49 755.644 1231.72 766.719 1231.09C779.064 1230.4 787.348 1220.54 793.031 1210.53C798.386 1201.1 802.186 1190.82 805.594 1180.56C809.895 1167.61 813.448 1154.42 816.781 1141.19C819.471 1130.51 822.059 1119.8 824.375 1109.03C828.89 1088.04 832.69 1066.93 836.719 1045.84C842.753 1014.26 848.981 982.682 855.625 951.219C859.801 931.441 864.327 911.785 870.219 892.438C872.063 886.383 873.988 880.331 876.219 874.406C877.056 872.183 877.965 869.942 878.969 867.75C880.132 870.387 881.126 873.094 882.031 875.812C886.423 889.009 889.701 902.607 892.938 916.125C898.695 940.177 904.007 964.309 909.969 988.312C913.018 1000.59 916.155 1012.87 919.75 1025C921.389 1030.53 923.125 1036.03 925.125 1041.44C926.555 1045.31 928.116 1049.14 930.062 1052.78C932.434 1057.22 935.508 1061.48 940.188 1063.66C941.967 1064.48 943.858 1065.01 945.812 1065.19C947.429 1065.34 949.064 1065.25 950.656 1064.94C958.923 1063.29 963.348 1055.93 966.812 1048.94C971.183 1040.11 974.412 1030.74 977.5 1021.41C981.962 1007.92 985.772 994.236 989.812 980.625C993.519 968.139 997.367 955.569 1002.59 943.625C1004.11 940.158 1005.73 936.664 1007.88 933.531C1008.14 933.149 1008.46 932.802 1008.75 932.438C1008.91 932.658 1009.07 932.869 1009.22 933.094C1010.18 934.517 1011.04 936.018 1011.84 937.531C1014.35 942.248 1016.46 947.182 1018.47 952.125C1019.63 954.981 1020.74 957.838 1021.84 960.719C1022.79 963.195 1023.76 965.681 1024.78 968.125C1025.53 969.897 1026.28 971.634 1027.09 973.375C1030.56 980.782 1035.58 990.247 1044.44 991.906C1045.81 992.164 1047.2 992.231 1048.59 992.125C1056.09 991.556 1061.04 986.381 1064.62 980.219C1067.08 975.997 1068.92 971.471 1070.78 966.969C1072.92 961.812 1075.08 956.66 1077.28 951.531C1079.53 946.301 1081.78 941.051 1084.41 936C1085.19 934.487 1086.01 932.976 1086.97 931.562C1087.25 931.151 1087.55 930.756 1087.88 930.375C1087.89 930.363 1087.9 930.356 1087.91 930.344C1087.94 930.361 1087.97 930.39 1088 930.406C1088.53 930.663 1089.58 932.1 1090.03 932.688C1091.57 934.696 1092.93 936.858 1094.22 939.031C1098.26 945.853 1101.69 953.036 1104.97 960.25C1109.52 970.272 1113.42 980.569 1117.81 990.656C1120.53 996.889 1123.36 1003.15 1127 1008.91C1130.87 1015.03 1136.78 1021.56 1144.84 1020C1148.37 1019.32 1151.37 1017.02 1153.62 1014.31C1157.36 1009.82 1159.1 1004.2 1160.53 998.625C1160.93 997.073 1161.28 995.533 1161.62 993.969C1162.11 991.77 1162.56 989.558 1162.97 987.344C1165.7 972.696 1167.38 957.851 1168.88 943.031C1170.82 923.741 1172.28 904.406 1173.56 885.062C1176.05 847.486 1177.82 809.846 1179.34 772.219C1180.25 749.728 1181.01 727.239 1181.97 704.75C1182.58 690.308 1183.38 675.874 1184.09 661.438C1184.92 644.643 1185.33 627.809 1186.47 611.031C1186.5 610.542 1186.55 610.082 1186.59 609.594C1186.6 609.472 1186.61 609.34 1186.62 609.219C1186.63 609.151 1186.64 608.933 1186.62 609C1186.73 608.423 1186.79 607.832 1186.84 607.25C1186.97 605.895 1187.08 604.544 1187.19 603.188C1187.5 599.17 1187.76 595.146 1188.03 591.125C1189.63 567.34 1190.84 543.536 1193.25 519.812C1194.85 504.08 1196.98 488.417 1199.34 472.781C1201.32 459.678 1203.37 446.58 1206.19 433.625C1207.79 426.222 1209.63 418.806 1212.25 411.688C1212.86 410.034 1213.59 408.423 1214.31 406.812C1214.74 407.903 1215.17 408.993 1215.56 410.094C1217.59 415.755 1219.37 421.509 1220.94 427.312C1223.27 435.93 1225.01 444.674 1226.69 453.438C1228.55 463.149 1230.26 472.906 1231.91 482.656C1234.88 500.285 1237.42 517.95 1240.09 535.625C1241.59 545.509 1243.28 555.363 1244.75 565.25C1247.08 580.89 1249.25 596.573 1251.53 612.219C1253.27 624.134 1255.1 636.037 1256.94 647.938C1259.62 665.379 1262.09 682.845 1264.81 700.281C1269.32 729.152 1274.2 757.975 1278.91 786.812C1281.57 803.108 1284.09 819.424 1286.75 835.719C1289.64 853.381 1292.68 871.019 1295.72 888.656C1299.59 911.124 1303.52 933.563 1307.56 956C1311.47 977.689 1315.47 999.376 1320.03 1020.94C1322.7 1033.54 1325.6 1046.09 1328.69 1058.59C1333.03 1076.18 1337.91 1093.64 1343.97 1110.72C1347.33 1120.2 1350.86 1129.92 1357.28 1137.81C1359.94 1141.08 1363.1 1144.2 1366.88 1146.16C1369 1147.26 1371.27 1147.84 1373.66 1148C1375.09 1148.1 1376.55 1148.04 1377.97 1147.81C1387.99 1146.21 1394.2 1136.74 1398.44 1128.38C1399.26 1126.74 1400.04 1125.11 1400.78 1123.44C1401.6 1121.59 1402.38 1119.72 1403.12 1117.84C1404.4 1114.65 1405.59 1111.4 1406.72 1108.16C1413.3 1089.2 1418.29 1069.68 1423.12 1050.22C1427.96 1030.78 1432.47 1011.26 1436.88 991.719C1440.33 976.4 1443.69 961.053 1447.34 945.781C1452.63 923.711 1458.34 901.711 1465.47 880.156C1466.77 876.21 1468.09 872.273 1469.53 868.375C1470.56 865.602 1471.63 862.83 1473.03 860.219C1474.21 858.012 1475.74 856.081 1477.41 854.219C1477.67 853.923 1477.94 853.63 1478.22 853.344C1479.53 854.56 1480.68 856.02 1481.62 857.469C1483.98 861.093 1485.8 865.066 1487.5 869.031C1493 881.901 1497.27 895.303 1501.53 908.625C1506.39 923.809 1511.09 939.05 1516.09 954.188C1519.29 963.86 1522.54 973.54 1526.25 983.031C1529.4 991.092 1532.92 999.765 1538.62 1006.41C1540.55 1008.65 1542.78 1010.97 1545.34 1012.47C1547.45 1013.7 1549.8 1014.18 1552.22 1014.28C1554.96 1014.39 1557.89 1014.4 1560.5 1013.44C1562.86 1012.56 1564.75 1010.99 1566.5 1009.22C1569.82 1005.86 1572.33 1001.83 1574.5 997.656C1578.65 989.692 1581.67 981.207 1584.72 972.781C1588.01 963.706 1591.28 954.634 1594.75 945.625C1595.97 942.447 1597.23 939.277 1598.59 936.156C1599.67 933.704 1600.82 931.247 1602.28 929C1603.05 927.816 1603.92 926.719 1604.84 925.656C1604.95 925.536 1605.08 925.432 1605.19 925.312C1606.24 926.456 1607.17 927.749 1608 929.031C1611.06 933.774 1613.65 938.81 1616.25 943.812C1618.44 948.028 1620.57 952.295 1622.72 956.531C1624.4 959.842 1626.07 963.142 1627.78 966.438C1629.02 968.828 1630.27 971.215 1631.53 973.594C1632.6 975.613 1633.68 977.626 1634.78 979.625C1635.49 980.902 1636.17 982.204 1637 983.406C1640.09 987.875 1644.26 991.988 1649.59 993.562C1650.93 993.959 1652.32 994.161 1653.72 994.188C1655.13 994.214 1656.55 994.054 1657.91 993.688C1668.39 990.864 1672.26 978.783 1675.16 969.625C1675.9 967.286 1676.61 964.952 1677.28 962.594C1678.08 959.816 1678.82 957.012 1679.56 954.219C1685.67 931.167 1690.62 907.846 1695.75 884.562C1699.12 869.269 1702.59 853.984 1706.22 838.75C1708.69 828.383 1711.16 818.007 1714.06 807.75C1716.02 800.837 1718.24 793.966 1720.53 787.156C1722.4 781.583 1724.35 776.019 1726.62 770.594C1727.23 772.958 1727.85 775.33 1728.34 777.719C1730.82 789.719 1732.2 801.871 1733.88 814C1737.97 843.705 1742.57 873.347 1746.59 903.062C1748.97 920.65 1750.75 938.299 1753.22 955.875C1753.73 959.53 1754.26 963.185 1754.75 966.844C1755.65 973.549 1756.42 980.276 1757.16 987C1757.41 989.282 1757.64 991.55 1758.03 993.812C1758.31 995.394 1758.64 997.058 1759.38 998.5C1759.77 999.281 1760.21 999.947 1760.81 1000.59C1761.56 1001.39 1762.29 1001.93 1763.28 1002.41C1765.58 1003.5 1767.88 1003.13 1770.25 1002.72C1772.42 1002.34 1774.43 1001.82 1776.16 1000.34C1780.58 996.572 1779.55 989.206 1779.03 984.094C1778.42 978.014 1777.57 971.956 1776.72 965.906C1775.61 958.014 1774.45 950.138 1773.31 942.25C1770.37 921.888 1768.27 901.412 1765.47 881.031C1764.25 872.145 1762.95 863.263 1761.53 854.406C1760.38 847.224 1759.08 840.081 1758.09 832.875C1755.94 817.226 1754.21 801.529 1751.66 785.938C1750.51 778.935 1749.23 771.932 1747.44 765.062C1746.25 760.493 1744.86 755.88 1742.72 751.656C1739.79 745.897 1735.24 741.126 1728.44 740.688C1720.1 740.149 1714.59 746.153 1710.88 752.875C1707.69 758.638 1705.5 764.89 1703.34 771.094C1700.8 778.427 1698.38 785.822 1696.03 793.219C1692.25 805.103 1688.49 817.032 1685.31 829.094C1684.3 832.923 1683.43 836.769 1682.53 840.625C1681.13 846.606 1679.76 852.609 1678.38 858.594C1673.68 878.87 1669.14 899.183 1664.62 919.5C1661.94 931.571 1659.35 943.651 1656.25 955.625C1655.26 959.447 1654.23 963.276 1652.91 967C1652.84 967.175 1652.75 967.404 1652.69 967.594C1652.21 966.687 1651.74 965.762 1651.28 964.875C1649.23 960.887 1647.32 956.851 1645.38 952.812C1642.34 946.521 1639.3 940.205 1636.22 933.938C1633.13 927.657 1629.98 921.395 1625.94 915.656C1621.9 909.923 1616.7 904.249 1609.72 902.312C1608.27 901.912 1606.78 901.7 1605.28 901.656C1603.16 901.595 1600.95 901.841 1598.94 902.531C1596.5 903.368 1594.33 904.907 1592.38 906.562C1588.96 909.465 1586.02 913.024 1583.69 916.844C1582.7 918.458 1581.87 920.133 1581.06 921.844C1577.04 930.424 1573.53 939.307 1570.41 948.25C1567.83 955.619 1565.49 963.034 1562.66 970.312C1561.04 974.456 1559.34 978.572 1557.44 982.594C1556.3 985.011 1555.05 987.469 1553.59 989.75C1553.49 989.604 1553.35 989.496 1553.25 989.344C1550.96 985.871 1549.26 982.032 1547.62 978.219C1542.63 966.549 1538.62 954.437 1534.69 942.375C1528.67 923.904 1523.14 905.247 1517 886.812C1514.73 879.985 1512.4 873.183 1509.81 866.469C1507.95 861.633 1505.95 856.825 1503.56 852.219C1502.71 850.576 1501.82 848.977 1500.84 847.406C1495.33 838.536 1486.26 828.689 1474.69 830.938C1467.53 832.329 1461.99 838.113 1457.97 843.844C1453.12 850.754 1449.89 858.573 1447.12 866.5C1445.34 871.613 1443.73 876.785 1442.16 881.969C1435.55 903.766 1429.99 925.891 1424.94 948.094C1422.54 958.628 1420.33 969.202 1418 979.75C1412.97 1002.51 1407.72 1025.25 1402.12 1047.88C1398.99 1060.54 1395.65 1073.12 1391.81 1085.59C1389.39 1093.46 1386.87 1101.31 1383.75 1108.94C1381.68 1114.01 1379.36 1119.34 1375.75 1123.53C1375.24 1124.13 1374.66 1124.67 1374.06 1125.19C1373.25 1124.29 1372.52 1123.29 1371.88 1122.34C1369.9 1119.46 1368.31 1116.38 1366.97 1113.16C1365.13 1108.77 1363.62 1104.23 1362.12 1099.72C1360.33 1094.29 1358.62 1088.84 1357.06 1083.34C1352.32 1066.58 1348.42 1049.58 1344.72 1032.56C1340.15 1011.57 1336 990.483 1332 969.375C1324.13 927.823 1317.07 886.152 1309.94 844.469C1305.69 819.665 1301.2 794.905 1297.19 770.062C1295.14 757.353 1293.24 744.593 1291.25 731.875C1286 698.393 1280.75 664.918 1275.69 631.406C1270.91 599.771 1266.32 568.133 1261.53 536.5C1257.62 510.674 1253.66 484.849 1249.12 459.125C1247.34 449.015 1245.48 438.911 1243.31 428.875C1241.71 421.441 1239.97 414.008 1237.69 406.75C1235.65 400.27 1233.16 393.63 1228.91 388.25C1225.69 384.183 1221.2 381.115 1215.94 380.625Z" fill="#ffffff" stroke="none"/>
</g>
<path d="M1315.85 595.791L1315.85 814.291L1333.85 814.291L1351.85 814.291L1351.85 720.291L1351.85 626.291L1370.25 626.291L1388.65 626.291L1395.65 637.491C1411.85 663.391 1416.05 673.591 1442.35 752.491L1463.05 814.291L1501.45 814.291L1539.85 814.291L1540.05 727.991L1540.35 641.791L1566.85 641.191C1596.75 640.591 1602.55 639.491 1617.35 632.391C1640.55 621.291 1657.35 600.091 1668.85 567.691C1675.75 548.091 1678.75 530.791 1679.55 504.791C1681.45 444.491 1664.55 400.191 1634.45 385.891C1618.35 378.291 1609.55 377.291 1552.15 377.291L1503.85 377.291L1503.65 593.891L1503.35 810.491L1482.95 750.691C1449.95 653.691 1442.65 635.791 1431.15 623.491L1425.25 617.291L1431.35 613.091C1439.85 607.091 1451.05 596.091 1456.45 588.591C1462.25 580.491 1470.75 562.591 1474.75 550.291C1486.55 513.791 1486.75 471.691 1475.35 435.391C1467.15 409.591 1453.85 391.391 1437.65 383.791C1424.45 377.591 1420.65 377.291 1365.35 377.291L1315.85 377.291L1315.85 595.791ZM1412.85 424.291C1428.75 429.991 1441.55 451.791 1444.95 478.691C1446.55 491.591 1445.55 514.891 1442.95 526.291C1438.55 545.691 1431.55 560.691 1422.65 569.591C1412.15 580.191 1404.25 582.191 1373.65 582.291L1351.85 582.291L1351.85 501.691L1351.85 421.091L1379.15 421.491C1404.65 421.891 1406.75 422.091 1412.85 424.291ZM1604.85 423.691C1618.85 428.291 1626.55 434.791 1632.45 446.891C1650.25 483.891 1643.25 554.191 1619.15 579.391C1612.85 585.991 1603.85 591.091 1592.85 594.391C1586.35 596.291 1582.25 596.591 1562.65 596.991L1539.85 597.491L1539.85 509.291L1539.85 421.091L1569.65 421.491C1594.55 421.891 1600.25 422.191 1604.85 423.691Z" fill="#ffffff" fill-rule="nonzero" opacity="1" stroke="none" vectornator:layerName="path"/>
<path d="M934.006 597.576L934.006 815.576L952.006 815.576L970.006 815.576L970.006 716.576L970.006 617.576L1034.01 617.576L1098.01 617.576L1098.01 716.576L1098.01 815.576L1116.01 815.576L1134.01 815.576L1134.01 597.576L1134.01 379.576L1116.01 379.576L1098.01 379.576L1098.01 476.576L1098.01 573.576L1034.01 573.576L970.006 573.576L970.006 476.576L970.006 379.576L952.006 379.576L934.006 379.576L934.006 597.576Z" fill="#ffffff" fill-rule="nonzero" opacity="1" stroke="none" vectornator:layerName="path"/>
<g opacity="1" vectornator:layerName="path">
<path d="M1867.2 873.6C1860 877.2 1852.6 887 1843.5 905.1C1836.8 918.3 1812.3 978.7 1813.3 979.6C1813.4 979.8 1816.3 978.7 1819.7 977.1L1825.7 974.2L1829.5 963.9C1845.1 920.9 1861.1 889.6 1870.5 883.4C1872.9 881.8 1873.2 881.8 1875.2 883.6C1878.9 887 1882 892.9 1887.5 907C1893.4 922.2 1897.2 929 1899.7 929C1903.1 929 1925.2 908 1930.4 899.7C1932.5 896.5 1934.9 893.6 1935.8 893.3C1938.1 892.3 1941.9 887.8 1942 885.8C1942 883.7 1938.3 881 1935.4 881C1931.2 881 1927.3 885.8 1919.5 900.9C1915.3 909.1 1910.5 917.1 1908.9 918.6C1906.1 921.3 1906 921.3 1903.9 919.4C1901 916.8 1899.1 912.8 1893.2 897.3C1884.2 873.7 1878.1 868.2 1867.2 873.6Z" fill="#ffffff" fill-rule="nonzero" stroke="none"/>
<path d="M1874.03 865.312C1872.5 865.315 1874.01 865.309 1864.44 867.844C1863.59 868.252 1862.91 868.85 1862.34 869.531C1862.18 869.623 1861.44 870.028 1861 870.344C1859.42 871.469 1857.94 872.728 1856.56 874.094C1853.32 877.308 1850.57 881.013 1848.06 884.812C1845.04 889.384 1842.37 894.175 1839.84 899.031C1835.83 906.733 1832.42 914.729 1829.03 922.719C1824.77 932.758 1820.6 942.838 1816.56 952.969C1815.55 955.516 1814.53 958.07 1813.53 960.625C1812.87 962.329 1812.21 964.04 1811.56 965.75C1810.55 968.412 1809.56 971.057 1808.62 973.75C1808.09 975.306 1807.42 976.975 1807.25 978.625C1807.18 979.344 1807.13 980.243 1807.34 980.906C1807.62 981.737 1807.87 982.644 1808.47 983.281C1809.34 984.208 1810.48 984.889 1811.62 985.438C1812.2 985.713 1812.9 985.646 1813.53 985.688C1813.81 985.706 1814.07 985.659 1814.34 985.625C1815.41 985.494 1816.47 985.078 1817.47 984.688C1818.79 984.171 1820.12 983.591 1821.41 983C1822.23 982.623 1823.03 982.237 1823.84 981.844C1826.21 980.701 1829.1 979.691 1830.69 977.469C1831.48 976.36 1831.87 974.987 1832.34 973.719C1832.82 972.432 1833.31 971.162 1833.78 969.875C1835.39 965.533 1836.98 961.171 1838.62 956.844C1843.75 943.368 1849.26 930.017 1855.59 917.062C1859.12 909.852 1862.89 902.659 1867.44 896.031C1868.79 894.062 1870.2 892.141 1871.84 890.406C1872.01 890.232 1872.2 890.076 1872.38 889.906C1875.13 893.356 1876.95 897.648 1878.62 901.625C1882.01 909.647 1884.77 917.969 1888.84 925.688C1891.35 930.433 1894.92 936.185 1901.19 935.125C1902.84 934.846 1904.38 933.912 1905.75 933C1909.81 930.302 1913.47 926.933 1917.03 923.625C1921.8 919.187 1926.41 914.551 1930.69 909.625C1932.13 907.957 1933.54 906.243 1934.81 904.438C1936.23 902.421 1937.51 900.241 1939.28 898.5C1939.33 898.456 1939.18 898.589 1939.12 898.625C1938.92 898.768 1938.83 898.827 1938.69 898.906C1938.9 898.798 1939.07 898.619 1939.28 898.5C1941.32 897.344 1943.1 895.76 1944.59 893.969C1947.5 890.489 1949.59 886.334 1947.38 881.875C1944.9 876.892 1938.49 873.822 1933.09 874.906C1930.44 875.439 1928.12 876.903 1926.19 878.75C1923.36 881.453 1921.25 884.822 1919.25 888.156C1916.01 893.56 1913.29 899.257 1910.22 904.75C1909.02 906.896 1907.78 909.046 1906.47 911.125C1906.34 911.326 1906.22 911.492 1906.09 911.688C1905.23 910.118 1904.49 908.481 1903.81 906.875C1901.95 902.479 1900.29 897.979 1898.56 893.531C1897.67 891.244 1896.76 888.967 1895.78 886.719C1895.09 885.129 1894.36 883.555 1893.59 882C1889.68 874.107 1883.91 865.295 1874.03 865.312Z" fill="#ffffff" stroke="none"/>
</g>
</g>
</g>
</svg>
