<?xml version="1.0" encoding="UTF-8" standalone="no"?>
<!DOCTYPE svg PUBLIC "-//W3C//DTD SVG 1.1//EN" "http://www.w3.org/Graphics/SVG/1.1/DTD/svg11.dtd">
<!-- Created with Vectornator (http://vectornator.io/) -->
<svg height="100%" stroke-miterlimit="10" style="fill-rule:nonzero;clip-rule:evenodd;stroke-linecap:round;stroke-linejoin:round;" version="1.1" viewBox="0 0 1600 1600" width="100%" xml:space="preserve" xmlns="http://www.w3.org/2000/svg" xmlns:vectornator="http://vectornator.io" xmlns:xlink="http://www.w3.org/1999/xlink">
<defs/>
<g id="Brain" vectornator:layerName="Brain">
<path d="M310 768.138C359.808 820.383 436.016 895.701 436.016 895.701C436.016 895.701 444.461 874.175 459.077 836.552C479.59 783.748 550.789 598.03 550.789 598.03L705.284 1129.07C705.284 1129.07 744.814 925.497 784.344 721.924C827.826 781.975 827.826 781.975 871.309 842.026C923.489 691.898 923.489 691.898 975.668 541.77C1031.8 709.913 1031.8 709.913 1087.93 878.057C1136.95 800.591 1136.95 800.591 1185.97 723.125C1288.74 918.291 1224.83 796.512 1327.6 991.678" fill="none" opacity="1" stroke="#000000" stroke-linecap="butt" stroke-linejoin="miter" stroke-width="43.1393" vectornator:layerName="Curve 1"/>
<path d="M805.312 45.0625L150 423.406L150 1180.09L805.312 1558.44L1460.62 1180.09L1460.62 423.406L805.312 45.0625ZM884.188 410.062C895.456 410.196 906.961 410.559 914.688 411.094C1000.67 416.708 1068.95 435.14 1121.78 467.156C1167.88 495.096 1226.08 549.097 1258.72 594.281C1288.21 635.121 1317.15 694.674 1326.25 733.375C1333.24 762.985 1333.51 795.868 1326.97 828.219C1316.13 881.758 1292.07 915.472 1244.56 943.812C1223.02 956.646 1198.84 966.318 1161.84 976.812C1125.81 987.039 1114.22 992.268 1105.31 1002.09C1101.14 1006.71 1099 1011.04 1097.78 1017.66C1097.27 1020.53 1096.27 1026.09 1095.56 1029.97C1090.24 1058.91 1074.46 1079.69 1047.72 1093.12C1027.59 1103.28 1004.76 1108.62 932.625 1120.19C884.216 1127.94 865.997 1132.37 847.531 1140.66C824.064 1151.22 812.345 1162.22 783.812 1200.66C769.065 1220.57 760.85 1230.16 748.219 1242.12C720.648 1268.26 691.861 1284.95 661.469 1292.44C654.672 1294.11 653.016 1294.25 641.219 1294.25C627.433 1294.25 623.763 1293.56 614.594 1289.69C593.563 1280.86 582.162 1260.03 584.406 1234.56C585.625 1220.79 589.417 1208.64 596.406 1196.41C598.33 1193 599.783 1190.1 599.719 1190.03C599.59 1189.96 595.379 1189.5 590.25 1189.03C569.86 1187.29 541.307 1181.08 519.25 1173.59C488.153 1163.03 467.954 1147.75 461.094 1129.5C457.888 1120.94 457.188 1117.05 457.188 1107.09L457.188 1097.66L454.812 1098.53C447.311 1101.27 429.942 1101.41 419.875 1098.88C405.128 1095.07 388.854 1086.3 377.312 1075.94C358.333 1058.89 340.115 1025.27 331.844 992.188C325.752 967.657 322.734 941.607 320.875 898.094C319.657 869.486 321.454 838.653 325.75 812.719C333.893 763.925 354.415 716.866 394.938 653.969C410.613 629.684 424.339 610.38 438.688 592.75C447.522 581.896 456.605 571.685 466.5 561.344C496.764 529.728 526.498 506.986 566.188 485.062C616.456 457.324 663.466 440.705 732.906 426C768.62 418.447 816.881 412.282 855.031 410.344C861.86 410.01 872.919 409.929 884.188 410.062Z" fill="#000000" fill-rule="nonzero" opacity="1" stroke="none" vectornator:layerName="Curve 1"/>
</g>
</svg>
